<svg xmlns="http://www.w3.org/2000/svg" width="236.35" height="35" viewBox="0 0 236.35 35"><rect class="svg__rect" x="0" y="0" width="142.24" height="35" fill="#419B5A"/><rect class="svg__rect" x="140.24" y="0" width="96.10999999999999" height="35" fill="#8FC965"/><path class="svg__text" d="M15.70 22L14.22 22L14.22 13.47L17.48 13.47Q18.91 13.47 19.75 14.21Q20.59 14.96 20.59 16.18L20.59 16.18Q20.59 17.44 19.77 18.13Q18.95 18.83 17.46 18.83L17.46 18.83L15.70 18.83L15.70 22ZM15.70 14.66L15.70 17.64L17.48 17.64Q18.27 17.64 18.69 17.27Q19.10 16.90 19.10 16.19L19.10 16.19Q19.10 15.50 18.68 15.09Q18.26 14.68 17.52 14.66L17.52 14.66L15.70 14.66ZM24.74 19.16L24.74 19.16L24.74 13.47L26.22 13.47L26.22 19.18Q26.22 20.03 26.65 20.48Q27.08 20.93 27.93 20.93L27.93 20.93Q29.64 20.93 29.64 19.13L29.64 19.13L29.64 13.47L31.12 13.47L31.12 19.17Q31.12 20.53 30.25 21.32Q29.38 22.12 27.93 22.12L27.93 22.12Q26.46 22.12 25.60 21.33Q24.74 20.55 24.74 19.16ZM38.80 22L35.69 22L35.69 13.47L38.61 13.47Q40.06 13.47 40.81 14.05Q41.57 14.63 41.57 15.78L41.57 15.78Q41.57 16.36 41.25 16.83Q40.94 17.30 40.33 17.56L40.33 17.56Q41.02 17.75 41.40 18.26Q41.77 18.78 41.77 19.51L41.77 19.51Q41.77 20.71 41.00 21.36Q40.23 22 38.80 22L38.80 22ZM37.17 18.15L37.17 20.82L38.81 20.82Q39.51 20.82 39.90 20.47Q40.30 20.13 40.30 19.51L40.30 19.51Q40.30 18.18 38.94 18.15L38.94 18.15L37.17 18.15ZM37.17 14.66L37.17 17.06L38.62 17.06Q39.31 17.06 39.70 16.75Q40.09 16.43 40.09 15.86L40.09 15.86Q40.09 15.23 39.73 14.95Q39.37 14.66 38.61 14.66L38.61 14.66L37.17 14.66ZM51.60 22L46.24 22L46.24 13.47L47.73 13.47L47.73 20.82L51.60 20.82L51.60 22ZM57.29 22L55.81 22L55.81 13.47L57.29 13.47L57.29 22ZM61.67 19.42L61.67 19.42L63.15 19.42Q63.15 20.15 63.63 20.55Q64.11 20.95 65.01 20.95L65.01 20.95Q65.78 20.95 66.17 20.63Q66.56 20.32 66.56 19.80L66.56 19.80Q66.56 19.24 66.16 18.94Q65.77 18.63 64.74 18.32Q63.71 18.01 63.10 17.63L63.10 17.63Q61.93 16.90 61.93 15.72L61.93 15.72Q61.93 14.69 62.77 14.02Q63.61 13.35 64.95 13.35L64.95 13.35Q65.84 13.35 66.54 13.68Q67.24 14.01 67.64 14.61Q68.04 15.22 68.04 15.96L68.04 15.96L66.56 15.96Q66.56 15.29 66.14 14.91Q65.72 14.54 64.94 14.54L64.94 14.54Q64.22 14.54 63.81 14.85Q63.41 15.16 63.41 15.71L63.41 15.71Q63.41 16.18 63.85 16.50Q64.28 16.81 65.28 17.10Q66.27 17.40 66.88 17.78Q67.48 18.16 67.76 18.65Q68.04 19.13 68.04 19.79L68.04 19.79Q68.04 20.86 67.22 21.49Q66.41 22.12 65.01 22.12L65.01 22.12Q64.08 22.12 63.30 21.77Q62.53 21.43 62.10 20.83Q61.67 20.22 61.67 19.42ZM73.81 22L72.33 22L72.33 13.47L73.81 13.47L73.81 17.02L77.63 17.02L77.63 13.47L79.10 13.47L79.10 22L77.63 22L77.63 18.21L73.81 18.21L73.81 22ZM89.42 22L83.84 22L83.84 13.47L89.38 13.47L89.38 14.66L85.33 14.66L85.33 17.02L88.83 17.02L88.83 18.19L85.33 18.19L85.33 20.82L89.42 20.82L89.42 22ZM96.07 22L93.62 22L93.62 13.47L96.14 13.47Q97.27 13.47 98.14 13.97Q99.02 14.48 99.50 15.40Q99.98 16.33 99.98 17.52L99.98 17.52L99.98 17.95Q99.98 19.16 99.50 20.08Q99.01 21.00 98.12 21.50Q97.23 22 96.07 22L96.07 22ZM95.10 14.66L95.10 20.82L96.07 20.82Q97.23 20.82 97.86 20.09Q98.48 19.36 98.49 17.99L98.49 17.99L98.49 17.52Q98.49 16.13 97.89 15.40Q97.29 14.66 96.14 14.66L96.14 14.66L95.10 14.66ZM110.15 18.00L110.15 18.00L110.15 17.52Q110.15 16.28 110.60 15.32Q111.04 14.37 111.84 13.86Q112.65 13.35 113.69 13.35Q114.73 13.35 115.54 13.85Q116.35 14.35 116.79 15.29Q117.22 16.23 117.23 17.48L117.23 17.48L117.23 17.96Q117.23 19.21 116.80 20.16Q116.36 21.10 115.56 21.61Q114.75 22.12 113.70 22.12L113.70 22.12Q112.67 22.12 111.85 21.61Q111.04 21.10 110.60 20.17Q110.16 19.23 110.15 18.00ZM111.64 17.46L111.64 17.96Q111.64 19.36 112.18 20.13Q112.73 20.90 113.70 20.90L113.70 20.90Q114.69 20.90 115.22 20.15Q115.75 19.40 115.75 17.96L115.75 17.96L115.75 17.51Q115.75 16.09 115.21 15.34Q114.68 14.58 113.69 14.58L113.69 14.58Q112.73 14.58 112.19 15.33Q111.65 16.09 111.64 17.46L111.64 17.46ZM123.18 22L121.70 22L121.70 13.47L123.18 13.47L126.99 19.54L126.99 13.47L128.46 13.47L128.46 22L126.98 22L123.18 15.95L123.18 22Z" fill="#FFFFFF"/><path class="svg__text" d="M156.63 22L154.43 22L154.43 13.60L156.38 13.60L159.34 18.45L162.22 13.60L164.17 13.60L164.20 22L162.02 22L161.99 17.55L159.83 21.17L158.78 21.17L156.63 17.67L156.63 22ZM176.10 22L169.36 22L169.36 13.60L175.95 13.60L175.95 15.44L171.71 15.44L171.71 16.85L175.45 16.85L175.45 18.63L171.71 18.63L171.71 20.17L176.10 20.17L176.10 22ZM184.88 22L180.91 22L180.91 13.60L184.88 13.60Q186.26 13.60 187.33 14.12Q188.39 14.63 188.98 15.58Q189.57 16.53 189.57 17.80L189.57 17.80Q189.57 19.07 188.98 20.02Q188.39 20.97 187.33 21.48Q186.26 22 184.88 22L184.88 22ZM183.29 15.50L183.29 20.10L184.79 20.10Q185.86 20.10 186.52 19.49Q187.17 18.88 187.17 17.80L187.17 17.80Q187.17 16.72 186.52 16.11Q185.86 15.50 184.79 15.50L184.79 15.50L183.29 15.50ZM196.68 22L194.30 22L194.30 13.60L196.68 13.60L196.68 22ZM201.78 18.26L201.78 18.26L201.78 13.60L204.16 13.60L204.16 18.19Q204.16 20.20 205.76 20.20L205.76 20.20Q207.34 20.20 207.34 18.19L207.34 18.19L207.34 13.60L209.68 13.60L209.68 18.26Q209.68 20.13 208.64 21.15Q207.60 22.17 205.73 22.17L205.73 22.17Q203.86 22.17 202.82 21.15Q201.78 20.13 201.78 18.26ZM216.97 22L214.77 22L214.77 13.60L216.72 13.60L219.68 18.45L222.56 13.60L224.51 13.60L224.54 22L222.36 22L222.33 17.55L220.17 21.17L219.12 21.17L216.97 17.67L216.97 22Z" fill="#FFFFFF" x="153.24"/></svg>